<?xml version="1.0" standalone="no"?>
<!DOCTYPE svg PUBLIC "-//W3C//DTD SVG 20010904//EN"
 "http://www.w3.org/TR/2001/REC-SVG-20010904/DTD/svg10.dtd">
<svg version="1.0" xmlns="http://www.w3.org/2000/svg"
 width="1200.000000pt" height="282.000000pt" viewBox="0 0 1200.000000 282.000000"
 preserveAspectRatio="xMidYMid meet">
<g transform="translate(0.000000,282.000000) scale(0.100000,-0.100000)"
fill="#000000" stroke="none">
<path d="M968 2673 c0 -5 -2 -191 -2 -415 -1 -264 3 -409 9 -411 6 -2 74 -3
153 -2 l143 0 1 415 0 415 -151 3 c-83 1 -152 -1 -153 -5z m210 -415 l2 -338
-70 0 -70 0 0 333 c0 184 3 337 7 341 4 4 34 6 68 4 l60 -3 3 -337z"/>
<path d="M2975 2664 c-138 -22 -273 -111 -337 -223 l-33 -56 -3 -362 -3 -363
45 0 45 0 3 348 3 347 27 50 c36 69 91 118 173 157 66 31 76 33 180 33 103 0
114 -2 176 -31 68 -32 149 -97 149 -118 0 -7 -32 -20 -71 -29 l-71 -17 -57 27
c-115 57 -267 29 -333 -61 l-28 -39 0 -284 0 -283 50 0 50 0 0 268 c0 259 1
269 21 291 11 12 32 26 46 32 43 16 126 11 168 -11 l40 -21 155 37 c85 21 159
41 164 45 14 12 -62 115 -117 157 -102 78 -170 101 -307 106 -58 3 -118 2
-135 0z"/>
<path d="M4270 2661 c-177 -31 -335 -159 -364 -296 -3 -16 -7 -156 -8 -310
l-2 -280 45 0 44 0 5 290 c5 277 6 292 28 337 86 174 346 248 544 154 58 -27
143 -100 134 -115 -3 -4 -36 -16 -74 -25 l-69 -16 -55 25 c-76 35 -133 41
-200 21 -75 -22 -119 -53 -146 -106 -22 -44 -22 -52 -20 -305 l3 -260 50 0 50
0 3 260 c2 249 3 260 24 282 11 12 37 28 56 34 43 14 126 5 159 -17 28 -17 50
-15 168 16 39 10 96 24 127 30 32 6 60 15 63 20 15 24 -92 144 -170 192 -99
61 -268 91 -395 69z"/>
<path d="M10729 2658 c-2 -7 -3 -269 -1 -581 l2 -568 43 3 42 3 1 520 1 520
39 0 39 0 3 -523 2 -523 43 3 42 3 0 575 0 575 -126 3 c-96 2 -128 0 -130 -10z"/>
<path d="M770 2366 c-388 -148 -637 -447 -695 -833 -19 -123 -19 -193 -1 -313
67 -441 398 -784 845 -875 119 -24 353 -17 466 14 171 48 329 134 457 250 125
114 250 319 297 491 43 156 43 387 1 545 -77 289 -285 540 -553 670 -109 52
-225 91 -237 79 -4 -5 -6 -32 -3 -61 l5 -52 66 -21 c135 -44 235 -105 350
-214 256 -243 354 -624 246 -953 -30 -94 -104 -229 -170 -311 -305 -382 -879
-458 -1274 -169 -230 168 -370 424 -386 707 -12 211 39 399 158 577 112 167
289 303 476 362 l72 24 0 58 c0 71 0 71 -120 25z"/>
<path d="M793 2140 c-259 -119 -435 -337 -489 -603 -22 -110 -14 -302 17 -402
81 -261 276 -462 534 -550 268 -91 562 -37 789 145 371 299 410 856 85 1203
-44 48 -111 107 -148 131 -74 50 -206 110 -225 103 -7 -3 -10 -24 -8 -58 l4
-54 86 -42 c196 -94 329 -260 384 -475 29 -116 22 -269 -17 -387 -72 -211
-251 -386 -473 -459 -66 -21 -96 -25 -207 -26 -110 -1 -142 3 -205 22 -204 64
-360 193 -450 372 -184 368 -12 818 372 976 l48 19 0 58 c0 68 -5 70 -97 27z"/>
<path d="M7797 1994 c-4 -4 -7 -81 -7 -171 l0 -163 -96 0 c-86 0 -95 -2 -92
-17 3 -17 28 -18 348 -18 320 0 345 1 348 18 3 15 -7 17 -97 17 l-101 0 -2
168 -3 167 -146 3 c-80 1 -148 -1 -152 -4z m223 -186 c0 -68 -4 -129 -9 -136
-5 -9 -27 -12 -72 -10 l-64 3 -3 133 -3 132 76 0 75 0 0 -122z"/>
<path d="M8775 1989 c-4 -6 -6 -84 -4 -173 l4 -161 -130 0 -130 0 -3 -39 c-2
-21 1 -43 5 -47 5 -5 51 -6 102 -2 85 6 93 8 102 30 8 21 15 23 68 23 l60 0 3
153 3 152 68 3 67 3 0 -175 c0 -96 3 -177 8 -179 4 -3 77 -6 162 -8 l155 -4 0
45 0 45 -120 0 -120 0 -2 170 -2 170 -145 3 c-99 2 -147 -1 -151 -9z"/>
<path d="M2778 1673 l-3 -68 -250 0 -250 0 -3 -27 -3 -26 541 0 541 0 -3 26
-3 27 -265 0 -265 0 0 50 0 50 610 0 610 0 0 -50 0 -50 -250 0 -250 0 -3 -27
-3 -26 536 0 c450 0 537 3 542 14 14 38 -8 41 -272 36 l-255 -5 0 57 0 56 31
0 c24 0 30 -3 25 -16 -3 -9 -6 -18 -6 -20 0 -2 -8 -4 -17 -4 -16 -1 -16 -2 -2
-13 8 -7 18 -20 22 -30 7 -19 27 -15 27 5 0 6 8 17 18 24 15 12 15 13 1 14
-14 0 -29 19 -29 36 0 2 129 3 288 2 l287 -3 3 -127 3 -128 24 0 c18 0 32 11
49 39 50 79 159 139 304 167 187 36 376 -7 513 -117 17 -14 48 -23 94 -27 l68
-7 58 -150 c32 -82 108 -289 169 -460 163 -455 161 -450 186 -422 6 7 96 204
200 439 104 235 193 427 198 425 9 -3 130 -268 311 -682 94 -216 94 -215 118
-204 18 8 48 82 151 367 144 396 208 567 228 609 13 27 16 28 113 33 85 4 100
8 103 23 3 15 -8 17 -117 17 l-121 0 -6 -27 c-22 -98 -345 -983 -358 -983 -11
0 -51 85 -282 607 -71 161 -134 293 -140 293 -13 0 -36 -48 -238 -505 -90
-203 -167 -370 -171 -370 -10 0 -43 85 -145 370 -39 110 -80 223 -91 250 -10
28 -45 129 -77 225 -31 96 -61 181 -65 188 -5 8 -34 12 -83 12 -67 0 -78 3
-102 26 -30 29 -133 81 -190 96 -117 31 -277 32 -390 2 -84 -21 -162 -64 -222
-121 -30 -29 -55 -53 -56 -53 -1 0 1 52 4 115 l5 115 -996 0 -996 0 -3 -67z"/>
<path d="M2852 1678 c-16 -16 -15 -26 2 -44 18 -18 24 -18 43 2 12 12 14 20 6
33 -13 21 -35 25 -51 9z"/>
<path d="M5093 1595 c-135 -29 -256 -113 -319 -220 -26 -45 -29 -58 -29 -140
0 -86 2 -94 35 -149 41 -68 102 -122 185 -164 58 -29 171 -62 211 -62 49 0
126 -33 164 -69 33 -31 40 -45 40 -75 0 -74 -54 -125 -163 -152 -84 -22 -164
-13 -246 27 -52 26 -67 29 -85 20 -11 -6 -59 -26 -106 -45 -47 -19 -86 -41
-88 -49 -4 -18 87 -100 153 -138 86 -50 164 -69 284 -69 70 0 126 6 162 16
140 42 251 130 305 241 38 77 40 203 6 273 -73 150 -226 248 -420 269 -99 11
-168 42 -195 89 -17 28 -17 37 -7 63 17 39 67 77 126 95 73 22 197 18 272 -8
70 -24 57 -27 197 36 44 19 81 39 83 45 5 15 -89 89 -155 121 -115 57 -275 74
-410 45z m266 -64 c71 -19 161 -65 168 -87 2 -6 -12 -19 -31 -29 -34 -19 -34
-19 -98 10 -210 95 -498 -11 -498 -184 0 -55 19 -89 75 -139 52 -46 99 -64
230 -87 161 -30 271 -101 321 -208 117 -252 -222 -493 -551 -393 -57 17 -159
76 -158 91 0 6 14 18 32 29 28 16 34 16 54 4 57 -37 141 -59 226 -59 136 0
244 44 301 122 37 52 45 90 29 147 -26 95 -125 159 -286 186 -175 30 -278 92
-336 201 -30 57 -29 155 1 213 84 159 309 238 521 183z"/>
<path d="M8758 1544 l-3 -48 -232 3 c-228 3 -233 2 -233 -18 0 -11 3 -22 8
-24 4 -2 106 0 227 4 165 6 222 5 227 -4 4 -7 8 -31 8 -54 l0 -43 54 0 c33 0
56 5 58 12 2 6 11 9 20 6 13 -5 15 -50 17 -340 1 -183 -1 -451 -5 -596 l-7
-262 -2406 2 -2406 3 -3 552 -2 552 157 3 c150 3 158 4 158 23 0 20 -8 20
-341 23 -312 2 -342 1 -348 -15 -4 -9 -2 -21 3 -26 5 -5 81 -8 170 -8 l161 2
-2 -553 -3 -553 -607 -3 -608 -2 -2 542 c-2 299 -1 549 0 555 3 9 47 13 160
15 149 3 157 4 157 23 0 20 -8 20 -343 23 l-343 2 3 -26 3 -27 163 2 162 2 0
-443 c0 -244 -3 -494 -7 -555 l-6 -113 -144 0 -143 0 0 114 c0 82 -4 116 -12
119 -7 3 -57 2 -111 -1 l-99 -5 2 99 c2 133 4 126 -26 122 l-27 -3 1 -245 0
-245 26 -3 26 -3 0 120 0 121 85 0 84 0 3 -117 3 -118 4665 0 4665 0 -4 480
c-2 264 -5 482 -8 484 -2 3 -95 6 -206 8 -111 1 -208 3 -214 3 -7 0 -13 9 -13
20 0 18 7 20 75 20 69 0 75 2 75 20 0 20 -5 20 -157 18 -150 -3 -158 -4 -158
-23 0 -18 7 -20 65 -20 l65 0 0 -35 0 -35 223 -3 222 -2 0 -445 0 -445 -1395
0 -1395 0 0 603 0 603 -35 17 c-35 17 -35 17 -35 82 0 64 0 65 27 65 19 0 42
-14 74 -46 l46 -45 244 -5 244 -5 267 -272 c147 -149 266 -272 265 -274 -2 -1
-65 -66 -140 -144 l-138 -142 -44 47 c-25 25 -57 70 -72 98 -24 46 -27 65 -28
143 0 101 17 146 82 219 l35 38 -27 27 -26 26 -36 -40 c-45 -51 -90 -145 -103
-217 -38 -206 119 -422 355 -489 28 -8 93 -14 150 -14 110 1 172 16 264 67
l53 29 24 -22 c40 -38 35 -45 -78 -101 -92 -45 -176 -61 -303 -55 -173 8 -289
58 -405 176 -190 193 -200 483 -23 673 l46 49 -28 29 -29 30 -29 -27 c-64 -61
-127 -177 -156 -288 -17 -63 -13 -174 9 -252 57 -207 220 -366 442 -434 57
-18 99 -23 193 -23 132 -1 194 11 292 55 64 28 193 109 193 120 0 4 -93 100
-206 213 l-206 207 173 177 c96 97 216 217 267 267 l94 89 327 1 c283 0 326
-2 326 -15 0 -12 -23 -15 -135 -18 -135 -3 -163 -9 -142 -34 8 -10 77 -13 309
-13 291 0 298 0 298 20 0 19 -8 20 -147 23 l-147 3 -3 37 -3 37 -353 0 -353 0
-61 -62 c-33 -35 -62 -63 -64 -63 -2 0 -25 15 -51 34 -171 121 -421 157 -619
90 -70 -23 -154 -63 -154 -72 0 -5 13 -20 28 -35 l29 -28 59 30 c86 43 208 65
308 57 91 -8 218 -48 284 -89 35 -23 41 -31 33 -46 -24 -45 -38 -46 -105 -12
-35 17 -87 38 -117 46 -104 28 -263 16 -370 -27 l-32 -14 25 -29 25 -29 59 20
c122 40 326 15 401 -50 l25 -22 -116 -114 c-65 -63 -121 -116 -126 -118 -5 -2
-136 123 -291 278 l-282 282 -231 -7 -231 -7 -52 48 -53 48 -84 3 -85 4 -3
-47z m1435 -790 c64 -64 117 -120 117 -124 0 -13 -96 -59 -155 -75 -33 -8 -87
-15 -120 -15 -81 0 -235 39 -235 60 0 8 262 269 270 270 3 0 58 -52 123 -116z"/>
<path d="M2452 1502 c-2 -7 0 -18 5 -23 5 -5 149 -10 341 -12 314 -2 333 -1
338 16 3 10 4 21 1 23 -3 3 -157 6 -342 7 -271 2 -339 -1 -343 -11z"/>
<path d="M3713 1507 c-9 -15 9 -48 24 -43 8 3 158 6 334 6 279 0 320 2 326 15
3 9 3 18 1 21 -9 8 -680 10 -685 1z"/>
<path d="M11362 1480 c-10 -17 -9 -25 5 -46 15 -23 18 -24 28 -10 7 9 17 16
24 16 18 0 13 24 -9 43 -26 22 -32 21 -48 -3z"/>
<path d="M6513 1468 c-6 -7 -31 -62 -56 -123 -24 -60 -80 -195 -124 -300 -44
-104 -90 -218 -102 -252 -13 -35 -29 -63 -37 -63 -7 0 -18 19 -24 43 -12 43
-182 560 -202 610 -8 20 -17 27 -39 27 -15 0 -30 -4 -34 -9 -3 -6 10 -49 29
-98 19 -48 58 -153 86 -233 29 -80 73 -203 100 -275 26 -71 54 -148 61 -170
l12 -40 28 60 c59 127 118 258 230 509 112 253 116 261 146 264 37 4 42 -2 91
-113 22 -49 51 -115 65 -145 13 -30 34 -76 46 -102 11 -27 31 -69 42 -95 12
-27 33 -73 46 -103 52 -113 76 -166 99 -218 13 -29 24 -58 24 -64 0 -40 24 17
162 392 34 91 83 221 109 290 27 69 45 128 40 133 -5 5 -19 7 -32 5 -17 -2
-27 -15 -40 -53 -10 -27 -58 -164 -108 -303 -50 -139 -91 -259 -91 -267 0 -7
-8 -23 -18 -35 -17 -21 -18 -20 -74 117 -47 114 -102 242 -240 563 -24 56 -22
55 -105 58 -56 2 -83 -1 -90 -10z"/>
<path d="M2763 1433 c-497 -3 -502 -3 -508 -24 -4 -11 -4 -23 -1 -26 3 -3 248
-6 543 -6 500 0 538 1 541 17 5 25 -17 46 -47 44 -14 -2 -252 -4 -528 -5z"/>
<path d="M3513 1423 c-3 -6 -3 -20 -1 -29 3 -16 41 -17 543 -17 507 0 540 1
543 18 2 9 0 21 -6 27 -14 14 -1073 16 -1079 1z"/>
<path d="M5705 1401 c-3 -5 4 -33 16 -63 17 -42 339 -929 354 -975 3 -9 31
-13 92 -13 l88 0 100 223 c54 122 130 294 168 382 38 88 73 164 77 169 6 6 12
2 16 -10 9 -28 100 -245 134 -317 15 -34 38 -84 50 -112 12 -27 31 -70 43 -95
11 -25 39 -88 62 -140 l43 -95 91 -3 c68 -2 92 1 95 10 5 17 122 349 147 416
10 28 28 76 38 105 24 65 77 210 125 342 20 55 41 108 46 117 6 10 10 27 10
38 0 15 -7 20 -29 20 -16 0 -33 -6 -38 -12 -5 -7 -38 -92 -73 -188 -57 -159
-169 -465 -255 -695 l-33 -90 -45 -3 -44 -3 -83 183 c-45 101 -98 216 -116
256 -19 41 -34 75 -34 77 0 2 -20 45 -44 97 -77 166 -96 208 -96 218 0 27 -24
4 -44 -42 -13 -29 -38 -84 -56 -123 -29 -63 -110 -245 -240 -535 l-47 -105
-41 -3 c-45 -3 -47 0 -86 112 -8 23 -29 79 -46 126 -17 47 -38 105 -46 130 -8
25 -19 54 -24 65 -5 11 -16 40 -24 65 -16 48 -37 106 -86 240 -18 47 -41 114
-52 150 -12 36 -25 71 -31 78 -11 14 -73 16 -82 3z"/>
<path d="M11738 1403 l-98 -4 0 -124 0 -125 35 0 34 0 3 83 3 82 40 0 40 0 3
-492 2 -493 35 0 35 0 0 534 c0 478 -2 535 -16 540 -9 3 -16 5 -17 4 -1 -1
-46 -4 -99 -5z"/>
<path d="M8514 1376 c-3 -8 -4 -31 -2 -51 l3 -38 130 -1 129 -1 1 -475 0 -475
34 2 c18 0 36 5 40 10 3 4 5 225 3 490 l-3 482 -62 3 c-56 3 -62 5 -65 26 -4
28 -6 29 -115 36 -70 5 -89 3 -93 -8z"/>
<path d="M9135 1381 l-140 -6 -3 -518 c-3 -565 -5 -538 53 -523 l25 6 0 476 0
475 123 -2 122 -1 0 48 c0 57 19 53 -180 45z"/>
<path d="M10736 1382 c-7 -12 -9 -1042 -2 -1050 4 -4 198 -6 246 -3 6 1 11
190 12 521 l3 519 -21 12 c-12 6 -30 9 -40 7 -18 -3 -19 -24 -24 -488 l-5
-485 -45 0 -45 0 -5 485 -5 485 -32 3 c-17 2 -34 -1 -37 -6z"/>
<path d="M7792 858 l3 -523 39 -3 c21 -2 43 1 47 5 5 5 9 241 10 524 l0 514
-51 3 -50 3 2 -523z"/>
<path d="M8015 1368 c-3 -7 -4 -242 -3 -523 l3 -510 48 0 49 0 0 520 0 520
-46 3 c-31 2 -48 -1 -51 -10z"/>
<path d="M11157 1316 c-3 -8 -3 -17 0 -20 4 -3 75 -6 160 -6 146 0 153 1 153
20 0 19 -7 20 -154 20 -123 0 -155 -3 -159 -14z"/>
<path d="M11014 1245 c-3 -8 -4 -18 -1 -22 3 -4 139 -8 304 -8 290 0 298 1
298 20 0 19 -8 20 -298 22 -248 2 -299 0 -303 -12z"/>
<path d="M2635 1229 c-3 -8 -4 -212 -3 -454 l3 -440 40 0 40 0 3 448 c2 421 1
447 -15 447 -10 0 -28 3 -40 6 -15 4 -25 1 -28 -7z"/>
<path d="M2905 1233 l-30 -4 1 -447 0 -447 40 0 39 0 0 449 c0 292 -4 450 -10
451 -5 1 -23 0 -40 -2z"/>
<path d="M3890 779 l0 -450 43 3 42 3 3 448 2 447 -45 0 -45 0 0 -451z"/>
<path d="M4140 1228 c-1 -2 -1 -203 -2 -448 l-1 -445 39 0 39 0 0 445 0 445
-37 3 c-21 2 -38 2 -38 0z"/>
<path d="M11635 1028 c-3 -7 -4 -166 -3 -353 l3 -340 29 0 29 0 -1 350 -2 350
-25 3 c-14 2 -27 -2 -30 -10z"/>
<path d="M2146 543 c-3 -3 -6 -78 -6 -165 l0 -159 23 3 c22 3 22 5 23 156 1
135 -1 154 -16 162 -10 5 -20 6 -24 3z"/>
<path d="M2077 454 c-14 -14 -8 -152 6 -157 30 -11 38 9 35 84 -2 57 -6 74
-18 77 -9 1 -19 0 -23 -4z"/>
</g>
</svg>
