<svg version="1.1" viewBox="0.0 0.0 960.0 540.0" fill="none" stroke="none" stroke-linecap="square" stroke-miterlimit="10" xmlns:xlink="http://www.w3.org/1999/xlink" xmlns="http://www.w3.org/2000/svg"><clipPath id="g3dedd678992_0_428.0"><path d="m0 0l960.0 0l0 540.0l-960.0 0l0 -540.0z" clip-rule="nonzero"/></clipPath><g clip-path="url(#g3dedd678992_0_428.0)"><path fill="#ffffff" d="m0 0l960.0 0l0 540.0l-960.0 0z" fill-rule="evenodd"/><path fill="#eeeeee" d="m263.89764 127.79265l0 42.40683l9.454071 4.5852966l45.27295 -19.771652l-0.5721741 -43.837273l-10.314972 -4.8713913z" fill-rule="evenodd"/><path stroke="#595959" stroke-width="1.0" stroke-linejoin="round" stroke-linecap="butt" d="m263.89764 127.79265l0 42.40683l9.454071 4.5852966l45.27295 -19.771652l-0.5721741 -43.837273l-10.314972 -4.8713913z" fill-rule="evenodd"/><path fill="#eeeeee" d="m339.82678 92.26247l0.2886963 59.887146l4.010498 2.291336l49.85565 -24.068253l0.2887268 -60.459312l-4.299225 -2.577423z" fill-rule="evenodd"/><path stroke="#595959" stroke-width="1.0" stroke-linejoin="round" stroke-linecap="butt" d="m339.82678 92.26247l0.2886963 59.887146l4.010498 2.291336l49.85565 -24.068253l0.2887268 -60.459312l-4.299225 -2.577423z" fill-rule="evenodd"/><path fill="#eeeeee" d="m261.0315 209.16798l-4.5852966 2.2939606l-3.152237 8.595795l-4.868759 8.59581l-5.157486 37.249344l-0.8608856 21.776886l1.4330597 4.010498l3.724411 3.1522522l4.871399 -0.8609009l3.7243958 -2.577423l8.023621 5.443573l1.1470032 7.7375183l7.448822 1.433075l2.8661194 -1.1469727l0.85827637 -10.314972l2.005249 -18.05249l-4.010498 -38.68242l-4.299225 -14.897629l-4.868744 -11.748032z" fill-rule="evenodd"/><path stroke="#595959" stroke-width="1.0" stroke-linejoin="round" stroke-linecap="butt" d="m261.0315 209.16798l-4.5852966 2.2939606l-3.152237 8.595795l-4.868759 8.59581l-5.157486 37.249344l-0.8608856 21.776886l1.4330597 4.010498l3.724411 3.1522522l4.871399 -0.8609009l3.7243958 -2.577423l8.023621 5.443573l1.1470032 7.7375183l7.448822 1.433075l2.8661194 -1.1469727l0.85827637 -10.314972l2.005249 -18.05249l-4.010498 -38.68242l-4.299225 -14.897629l-4.868744 -11.748032z" fill-rule="evenodd"/><path fill="#eeeeee" d="m236.67717 295.4147l14.897629 107.45145l7.165344 7.734894l6.0157776 0.2861023l2.005249 -5.157501l-1.7191772 -4.010498l-9.167984 -2.005249l-13.753281 -105.73227z" fill-rule="evenodd"/><path stroke="#595959" stroke-width="1.0" stroke-linejoin="round" stroke-linecap="butt" d="m236.67717 295.4147l14.897629 107.45145l7.165344 7.734894l6.0157776 0.2861023l2.005249 -5.157501l-1.7191772 -4.010498l-9.167984 -2.005249l-13.753281 -105.73227z" fill-rule="evenodd"/><path fill="#eeeeee" d="m246.70604 308.8819l14.611557 10.02887l6.8766174 40.687653l6.0183716 39.54068l7.448822 8.598419l8.881897 -1.7191467l4.0131226 -13.467194l-2.2939453 -17.766388l5.7322693 -6.590576l-2.5800476 -6.301819l-9.740173 -2.5800476l-4.2991943 2.5800476l-4.871399 -14.041992l-7.734894 -29.797913l-18.913406 -10.8897705z" fill-rule="evenodd"/><path stroke="#595959" stroke-width="1.0" stroke-linejoin="round" stroke-linecap="butt" d="m246.70604 308.8819l14.611557 10.02887l6.8766174 40.687653l6.0183716 39.54068l7.448822 8.598419l8.881897 -1.7191467l4.0131226 -13.467194l-2.2939453 -17.766388l5.7322693 -6.590576l-2.5800476 -6.301819l-9.740173 -2.5800476l-4.2991943 2.5800476l-4.871399 -14.041992l-7.734894 -29.797913l-18.913406 -10.8897705z" fill-rule="evenodd"/><path fill="#eeeeee" d="m304.5853 384.52756l-5.4461975 6.5905457l-0.85824585 9.454071l4.2991943 8.023621l8.020996 4.299225l10.02887 -0.2887268l8.595795 -6.015747l2.86615 -10.314941l-3.438324 -9.456696l-5.1574707 -4.5827026l-8.881897 -1.4330444l-7.165344 0.85824585z" fill-rule="evenodd"/><path stroke="#595959" stroke-width="1.0" stroke-linejoin="round" stroke-linecap="butt" d="m304.5853 384.52756l-5.4461975 6.5905457l-0.85824585 9.454071l4.2991943 8.023621l8.020996 4.299225l10.02887 -0.2887268l8.595795 -6.015747l2.86615 -10.314941l-3.438324 -9.456696l-5.1574707 -4.5827026l-8.881897 -1.4330444l-7.165344 0.85824585z" fill-rule="evenodd"/><path fill="#eeeeee" d="m341.25986 372.49344l-8.309723 8.023621l-2.2913513 7.7349243l3.7244263 4.5852966l11.461945 3.438324l16.047241 -3.1522522l9.454071 -11.461945l0 -6.3044434l-5.7296753 -4.582672l-10.603668 -2.2939758l-10.314972 1.433075z" fill-rule="evenodd"/><path stroke="#595959" stroke-width="1.0" stroke-linejoin="round" stroke-linecap="butt" d="m341.25986 372.49344l-8.309723 8.023621l-2.2913513 7.7349243l3.7244263 4.5852966l11.461945 3.438324l16.047241 -3.1522522l9.454071 -11.461945l0 -6.3044434l-5.7296753 -4.582672l-10.603668 -2.2939758l-10.314972 1.433075z" fill-rule="evenodd"/><path fill="#eeeeee" d="m333.81104 424.35434l-4.299225 10.314941l7.7375183 6.8792725l16.619446 0.5721741l10.314941 -6.876648l-1.7191467 -7.1627197l-3.1522217 -4.871399l-10.02887 -3.4382935l-11.175873 1.7191467z" fill-rule="evenodd"/><path stroke="#595959" stroke-width="1.0" stroke-linejoin="round" stroke-linecap="butt" d="m333.81104 424.35434l-4.299225 10.314941l7.7375183 6.8792725l16.619446 0.5721741l10.314941 -6.876648l-1.7191467 -7.1627197l-3.1522217 -4.871399l-10.02887 -3.4382935l-11.175873 1.7191467z" fill-rule="evenodd"/><path fill="#eeeeee" d="m286.2467 345.84515l16.905518 9.167969l38.107635 -17.477692l-1.1443787 -6.015747l-3.1522217 0.5721741l-0.2861023 -6.876648l-2.8661194 0l-0.5722046 -7.1627197l-9.742767 -4.871399l-37.24936 17.19162z" fill-rule="evenodd"/><path stroke="#595959" stroke-width="1.0" stroke-linejoin="round" stroke-linecap="butt" d="m286.2467 345.84515l16.905518 9.167969l38.107635 -17.477692l-1.1443787 -6.015747l-3.1522217 0.5721741l-0.2861023 -6.876648l-2.8661194 0l-0.5722046 -7.1627197l-9.742767 -4.871399l-37.24936 17.19162z" fill-rule="evenodd"/><path fill="#eeeeee" d="m323.20996 285.38583l-2.2939453 6.876648l1.7191467 7.451416l6.0183716 1.7191772l5.157501 -2.86615l1.1469727 -5.1574707l-2.0078735 -7.7349243l-3.438324 -3.1522217l-3.7243958 0.85827637z" fill-rule="evenodd"/><path stroke="#595959" stroke-width="1.0" stroke-linejoin="round" stroke-linecap="butt" d="m323.20996 285.38583l-2.2939453 6.876648l1.7191467 7.451416l6.0183716 1.7191772l5.157501 -2.86615l1.1469727 -5.1574707l-2.0078735 -7.7349243l-3.438324 -3.1522217l-3.7243958 0.85827637z" fill-rule="evenodd"/><path fill="#eeeeee" d="m286.2467 266.47507l17.763794 9.742767l6.0183716 -0.5721741l-0.2861023 -4.2991943l-7.7375183 -5.157501l-16.044617 -8.023621z" fill-rule="evenodd"/><path stroke="#595959" stroke-width="1.0" stroke-linejoin="round" stroke-linecap="butt" d="m286.2467 266.47507l17.763794 9.742767l6.0183716 -0.5721741l-0.2861023 -4.2991943l-7.7375183 -5.157501l-16.044617 -8.023621z" fill-rule="evenodd"/><path fill="#eeeeee" d="m298.28085 240.40158l34.097107 -17.191605l-2.86615 -22.92389l1.7191467 -2.577423l-2.577423 -5.4461975l-7.7375183 -1.719162l-32.664032 15.761154l1.1469727 12.606308l-0.2861023 6.3044586l-3.438324 1.1469727l0 7.734909z" fill-rule="evenodd"/><path stroke="#595959" stroke-width="1.0" stroke-linejoin="round" stroke-linecap="butt" d="m298.28085 240.40158l34.097107 -17.191605l-2.86615 -22.92389l1.7191467 -2.577423l-2.577423 -5.4461975l-7.7375183 -1.719162l-32.664032 15.761154l1.1469727 12.606308l-0.2861023 6.3044586l-3.438324 1.1469727l0 7.734909z" fill-rule="evenodd"/><path fill="#eeeeee" d="m308.30972 253.58267l0.5721741 12.606293l5.443573 2.005249l9.456696 -4.8713684l6.5905457 3.1522217l4.5852966 -4.871399l-2.0078735 -6.015747l0.8609009 -6.5905457l-3.7244263 -5.443573l-10.02887 2.005249z" fill-rule="evenodd"/><path stroke="#595959" stroke-width="1.0" stroke-linejoin="round" stroke-linecap="butt" d="m308.30972 253.58267l0.5721741 12.606293l5.443573 2.005249l9.456696 -4.8713684l6.5905457 3.1522217l4.5852966 -4.871399l-2.0078735 -6.015747l0.8609009 -6.5905457l-3.7244263 -5.443573l-10.02887 2.005249z" fill-rule="evenodd"/><path fill="#eeeeee" d="m285.96063 323.49606l17.19159 -8.595795l6.5905457 -2.2939758l-0.86087036 -5.1574707l6.5905457 2.5800476l3.1522217 -2.005249l-7.448822 -20.629913l-5.1574707 -4.0131226l-20.632538 9.742767z" fill-rule="evenodd"/><path stroke="#595959" stroke-width="1.0" stroke-linejoin="round" stroke-linecap="butt" d="m285.96063 323.49606l17.19159 -8.595795l6.5905457 -2.2939758l-0.86087036 -5.1574707l6.5905457 2.5800476l3.1522217 -2.005249l-7.448822 -20.629913l-5.1574707 -4.0131226l-20.632538 9.742767z" fill-rule="evenodd"/><path fill="#eeeeee" d="m339.82678 163.03674l-0.2861023 5.7322845l8.8845215 5.157486l0.85827637 48.136475l81.94748 -39.826767l-0.85824585 -60.745407l-2.86615 -1.1469803z" fill-rule="evenodd"/><path stroke="#595959" stroke-width="1.0" stroke-linejoin="round" stroke-linecap="butt" d="m339.82678 163.03674l-0.2861023 5.7322845l8.8845215 5.157486l0.85827637 48.136475l81.94748 -39.826767l-0.85824585 -60.745407l-2.86615 -1.1469803z" fill-rule="evenodd"/><path fill="#eeeeee" d="m387.10498 257.3071l-0.85827637 10.02887l-1.7191467 3.1522217l0.2861023 16.330719l4.010498 2.8661194l5.4461975 -2.8661194l0.28607178 -18.049866l-2.005249 -2.86615l-0.8609009 -8.595795z" fill-rule="evenodd"/><path stroke="#595959" stroke-width="1.0" stroke-linejoin="round" stroke-linecap="butt" d="m387.10498 257.3071l-0.85827637 10.02887l-1.7191467 3.1522217l0.2861023 16.330719l4.010498 2.8661194l5.4461975 -2.8661194l0.28607178 -18.049866l-2.005249 -2.86615l-0.8609009 -8.595795z" fill-rule="evenodd"/><path fill="#eeeeee" d="m373.9265 300.2861l16.330719 8.023621l21.776886 -12.034119l-13.467194 -8.595825z" fill-rule="evenodd"/><path stroke="#595959" stroke-width="1.0" stroke-linejoin="round" stroke-linecap="butt" d="m373.9265 300.2861l16.330719 8.023621l21.776886 -12.034119l-13.467194 -8.595825z" fill-rule="evenodd"/><path fill="#eeeeee" d="m483.09448 248.13649l15.758545 8.884506l8.595795 -5.157486l-15.472443 -9.170593z" fill-rule="evenodd"/><path stroke="#595959" stroke-width="1.0" stroke-linejoin="round" stroke-linecap="butt" d="m483.09448 248.13649l15.758545 8.884506l8.595795 -5.157486l-15.472443 -9.170593z" fill-rule="evenodd"/><path fill="#eeeeee" d="m438.22833 116.89764l0 43.76641l4.984253 1.664032l31.855652 -15.790024l-3.876648 -22.71653l0 -22.16011z" fill-rule="evenodd"/><path stroke="#595959" stroke-width="1.0" stroke-linejoin="round" stroke-linecap="butt" d="m438.22833 116.89764l0 43.76641l4.984253 1.664032l31.855652 -15.790024l-3.876648 -22.71653l0 -22.16011z" fill-rule="evenodd"/><path fill="#eeeeee" d="m414.958 82.826775l1.3858337 7.477684l0.27557373 9.695541l11.913391 2.4934387l4.984253 -4.154854l1.1102295 -4.1548615l10.524933 0.27559662l5.54068 -3.3228378l-0.27819824 -4.708664l11.08136 1.3832016l4.433075 -3.3228302l3.876648 -13.574806l3.3254395 -1.6614151l-4.154846 -4.4330673l4.154846 -3.0472488l-5.2650757 -3.0446167l1.9396362 -2.4934387l-5.816284 -1.6640434l1.9396362 -4.154854l-9.141724 2.7716522l-8.86615 -1.1076126l1.9396362 6.0918655l-8.031494 4.1574783l5.8162537 4.4304466l-6.3726807 0.5538025l-7.7559204 1.9396362l-1.9370117 4.9868774l-6.9265137 0l-6.648285 2.2152252z" fill-rule="evenodd"/><path stroke="#595959" stroke-width="1.0" stroke-linejoin="round" stroke-linecap="butt" d="m414.958 82.826775l1.3858337 7.477684l0.27557373 9.695541l11.913391 2.4934387l4.984253 -4.154854l1.1102295 -4.1548615l10.524933 0.27559662l5.54068 -3.3228378l-0.27819824 -4.708664l11.08136 1.3832016l4.433075 -3.3228302l3.876648 -13.574806l3.3254395 -1.6614151l-4.154846 -4.4330673l4.154846 -3.0472488l-5.2650757 -3.0446167l1.9396362 -2.4934387l-5.816284 -1.6640434l1.9396362 -4.154854l-9.141724 2.7716522l-8.86615 -1.1076126l1.9396362 6.0918655l-8.031494 4.1574783l5.8162537 4.4304466l-6.3726807 0.5538025l-7.7559204 1.9396362l-1.9370117 4.9868774l-6.9265137 0l-6.648285 2.2152252z" fill-rule="evenodd"/><path fill="#eeeeee" d="m487.53543 141.55118l115.787384 55.955383l-0.553772 -105.54068l-114.404205 -57.062996z" fill-rule="evenodd"/><path stroke="#595959" stroke-width="1.0" stroke-linejoin="round" stroke-linecap="butt" d="m487.53543 141.55118l115.787384 55.955383l-0.553772 -105.54068l-114.404205 -57.062996z" fill-rule="evenodd"/><path fill="#eeeeee" d="m494.45932 155.6798l34.073517 16.897629l0.27557373 35.456696l-4.9868774 -1.6640472l-6.6483154 3.8792725l-2.4907837 4.1548615l-13.850403 6.648285l0.8293762 16.61943l-6.0944824 1.664032l-9.139099 -4.4330597l-2.7716675 -7.755905l10.527557 -1.6614227l-0.83200073 -44.32283l-32.13388 2.4934387l0.27822876 -12.18898l15.790039 -9.139114l-0.27822876 -4.7112885l6.648285 -3.0472412l7.7559204 2.4934387z" fill-rule="evenodd"/><path stroke="#595959" stroke-width="1.0" stroke-linejoin="round" stroke-linecap="butt" d="m494.45932 155.6798l34.073517 16.897629l0.27557373 35.456696l-4.9868774 -1.6640472l-6.6483154 3.8792725l-2.4907837 4.1548615l-13.850403 6.648285l0.8293762 16.61943l-6.0944824 1.664032l-9.139099 -4.4330597l-2.7716675 -7.755905l10.527557 -1.6614227l-0.83200073 -44.32283l-32.13388 2.4934387l0.27822876 -12.18898l15.790039 -9.139114l-0.27822876 -4.7112885l6.648285 -3.0472412l7.7559204 2.4934387z" fill-rule="evenodd"/><path fill="#eeeeee" d="m502.76904 222.30858l0.27819824 22.96199l8.309723 4.5918884l31.026215 -15.667191l-0.27819824 -23.50206l-9.417297 -4.3231354z" fill-rule="evenodd"/><path stroke="#595959" stroke-width="1.0" stroke-linejoin="round" stroke-linecap="butt" d="m502.76904 222.30858l0.27819824 22.96199l8.309723 4.5918884l31.026215 -15.667191l-0.27819824 -23.50206l-9.417297 -4.3231354z" fill-rule="evenodd"/><path fill="#eeeeee" d="m384.4882 216.61942l0 36.288727l51.52231 -25.207352l-0.82940674 -35.73491z" fill-rule="evenodd"/><path stroke="#595959" stroke-width="1.0" stroke-linejoin="round" stroke-linecap="butt" d="m384.4882 216.61942l0 36.288727l51.52231 -25.207352l-0.82940674 -35.73491z" fill-rule="evenodd"/><path fill="#eeeeee" d="m532.6877 276.17847l59.556396 -29.918625l73.1286 35.45668l-57.06299 29.364838z" fill-rule="evenodd"/><path stroke="#595959" stroke-width="1.0" stroke-linejoin="round" stroke-linecap="butt" d="m532.6877 276.17847l59.556396 -29.918625l73.1286 35.45668l-57.06299 29.364838z" fill-rule="evenodd"/><path fill="#eeeeee" d="m416.0656 437.39633l-3.6010437 10.803131l0.5538025 6.6483154l-2.21521 3.6010437l3.3254395 3.3228455l9.692932 -2.769043l4.711273 1.6614075l1.107605 4.433075l5.2624817 1.3858337l18.283447 -8.312347l5.816284 -4.7086487l0.83203125 -3.6010437l5.8162537 -2.4934387l0.5538025 5.54068l9.141754 -2.2152405l3.8766174 2.2152405l13.850403 -6.0944824l2.7716675 -8.585327l-9.417328 -12.467163l-16.068237 -11.632568l-19.391083 1.3832092l-17.173218 7.480316z" fill-rule="evenodd"/><path stroke="#595959" stroke-width="1.0" stroke-linejoin="round" stroke-linecap="butt" d="m416.0656 437.39633l-3.6010437 10.803131l0.5538025 6.6483154l-2.21521 3.6010437l3.3254395 3.3228455l9.692932 -2.769043l4.711273 1.6614075l1.107605 4.433075l5.2624817 1.3858337l18.283447 -8.312347l5.816284 -4.7086487l0.83203125 -3.6010437l5.8162537 -2.4934387l0.5538025 5.54068l9.141754 -2.2152405l3.8766174 2.2152405l13.850403 -6.0944824l2.7716675 -8.585327l-9.417328 -12.467163l-16.068237 -11.632568l-19.391083 1.3832092l-17.173218 7.480316z" fill-rule="evenodd"/><path fill="#eeeeee" d="m467.86615 467.59055l3.6010437 6.3700867l0 5.262451l3.0472412 5.8189087l6.0944824 0.82940674l5.54068 2.2178345l8.309723 -3.8792725l4.9868774 -0.27557373l7.480316 2.4934387l13.850403 -2.217865l6.091858 -6.648285l-0.27557373 -8.585297l-6.9265137 -9.973755l-11.356964 -4.433075l-12.464569 1.664032l-8.863525 4.984253l-8.587921 2.217865l-3.6010437 4.4304504z" fill-rule="evenodd"/><path stroke="#595959" stroke-width="1.0" stroke-linejoin="round" stroke-linecap="butt" d="m467.86615 467.59055l3.6010437 6.3700867l0 5.262451l3.0472412 5.8189087l6.0944824 0.82940674l5.54068 2.2178345l8.309723 -3.8792725l4.9868774 -0.27557373l7.480316 2.4934387l13.850403 -2.217865l6.091858 -6.648285l-0.27557373 -8.585297l-6.9265137 -9.973755l-11.356964 -4.433075l-12.464569 1.664032l-8.863525 4.984253l-8.587921 2.217865l-3.6010437 4.4304504z" fill-rule="evenodd"/><path fill="#eeeeee" d="m552.90814 438.22833l-10.524963 -3.0472412l-12.467163 0.5538025l-12.4646 -5.818878l-1.9395752 -10.803162l8.034119 -13.29657l15.51178 -4.708679l18.005249 1.9396362l11.913391 4.154846l6.645691 6.094513l8.587891 0.5538025l-3.322815 6.648285l-0.83203125 9.695526l-6.0944824 1.9396362l-3.6010742 3.876648l-20.220459 -9.141724l-9.419922 1.1102295l9.695496 3.3228455z" fill-rule="evenodd"/><path stroke="#595959" stroke-width="1.0" stroke-linejoin="round" stroke-linecap="butt" d="m552.90814 438.22833l-10.524963 -3.0472412l-12.467163 0.5538025l-12.4646 -5.818878l-1.9395752 -10.803162l8.034119 -13.29657l15.51178 -4.708679l18.005249 1.9396362l11.913391 4.154846l6.645691 6.094513l8.587891 0.5538025l-3.322815 6.648285l-0.83203125 9.695526l-6.0944824 1.9396362l-3.6010742 3.876648l-20.220459 -9.141724l-9.419922 1.1102295l9.695496 3.3228455z" fill-rule="evenodd"/><path fill="#eeeeee" d="m565.0971 308.03412l-12.742798 6.0944824l-0.553772 7.7559204l1.661377 4.984253l0.553833 6.9265137l1.3858032 21.606293l6.9265137 1.107605l3.322876 -2.21521l5.262451 -3.32547l7.4802856 -1.3832092l2.215271 -3.6010437l9.141724 -2.2178345l-0.27825928 -24.375336z" fill-rule="evenodd"/><path stroke="#595959" stroke-width="1.0" stroke-linejoin="round" stroke-linecap="butt" d="m565.0971 308.03412l-12.742798 6.0944824l-0.553772 7.7559204l1.661377 4.984253l0.553833 6.9265137l1.3858032 21.606293l6.9265137 1.107605l3.322876 -2.21521l5.262451 -3.32547l7.4802856 -1.3832092l2.215271 -3.6010437l9.141724 -2.2178345l-0.27825928 -24.375336z" fill-rule="evenodd"/><path fill="#eeeeee" d="m600.83203 333.7953l1.9370117 8.034119l-3.322876 3.322815l-8.309692 8.034119l-4.154846 6.6483154l-5.8189087 0.27557373l-2.4934082 3.0472412l-5.816284 -4.154846l-9.97113 5.2624817l-0.553833 8.866119l1.661438 4.1548767l5.816284 1.9369812l5.262451 -2.7690125l16.068237 6.372711l0.27557373 4.984253l3.8792725 4.154846l6.0944824 0.83203125l5.262512 -5.2624817l2.4934082 -7.480316l-1.3858032 -3.3228455l13.574768 -6.926483l1.107605 5.54068l2.769043 1.9396362l5.5407104 -3.0472717l4.9868774 -1.9396057l1.3831787 -4.433075l-0.27557373 -6.0944824l-3.8792725 -3.0446472l-6.370056 -0.27819824l-8.034119 -3.8792725l-5.5407104 -3.876648l-2.769043 -16.897614l-3.8792725 -1.661438z" fill-rule="evenodd"/><path stroke="#595959" stroke-width="1.0" stroke-linejoin="round" stroke-linecap="butt" d="m600.83203 333.7953l1.9370117 8.034119l-3.322876 3.322815l-8.309692 8.034119l-4.154846 6.6483154l-5.8189087 0.27557373l-2.4934082 3.0472412l-5.816284 -4.154846l-9.97113 5.2624817l-0.553833 8.866119l1.661438 4.1548767l5.816284 1.9369812l5.262451 -2.7690125l16.068237 6.372711l0.27557373 4.984253l3.8792725 4.154846l6.0944824 0.83203125l5.262512 -5.2624817l2.4934082 -7.480316l-1.3858032 -3.3228455l13.574768 -6.926483l1.107605 5.54068l2.769043 1.9396362l5.5407104 -3.0472717l4.9868774 -1.9396057l1.3831787 -4.433075l-0.27557373 -6.0944824l-3.8792725 -3.0446472l-6.370056 -0.27819824l-8.034119 -3.8792725l-5.5407104 -3.876648l-2.769043 -16.897614l-3.8792725 -1.661438z" fill-rule="evenodd"/><path fill="#eeeeee" d="m626.03937 377.8399l10.524963 -5.54068l1.6640015 -3.0472412l2.4908447 1.9396057l6.3726807 -1.9396057l3.322815 0.83200073l-8.585266 7.202118l1.3831787 3.0472412l4.9868774 1.6614075l-0.27819824 9.97113l-18.834656 6.0944824l-12.742798 1.9396362l-8.863525 -4.154846l1.661438 -6.9265137l7.7559204 -6.648285z" fill-rule="evenodd"/><path stroke="#595959" stroke-width="1.0" stroke-linejoin="round" stroke-linecap="butt" d="m626.03937 377.8399l10.524963 -5.54068l1.6640015 -3.0472412l2.4908447 1.9396057l6.3726807 -1.9396057l3.322815 0.83200073l-8.585266 7.202118l1.3831787 3.0472412l4.9868774 1.6614075l-0.27819824 9.97113l-18.834656 6.0944824l-12.742798 1.9396362l-8.863525 -4.154846l1.661438 -6.9265137l7.7559204 -6.648285z" fill-rule="evenodd"/><path fill="#eeeeee" d="m681.71655 301.38583l5.8189087 2.7690125l0.553772 3.8792725l11.078735 5.2624817l8.034119 -4.1548767l7.4803467 4.708679l6.0944824 -0.83203125l4.984253 -8.031494l0.553772 -8.309723l-3.0472412 -4.1574707l-6.0944824 -1.9370117l0 -20.776886l-44.32019 -20.22049l-3.322815 1.9370117l0.27557373 35.45932l19.944885 9.417328l-0.83203125 2.7690125z" fill-rule="evenodd"/><path stroke="#595959" stroke-width="1.0" stroke-linejoin="round" stroke-linecap="butt" d="m681.71655 301.38583l5.8189087 2.7690125l0.553772 3.8792725l11.078735 5.2624817l8.034119 -4.1548767l7.4803467 4.708679l6.0944824 -0.83203125l4.984253 -8.031494l0.553772 -8.309723l-3.0472412 -4.1574707l-6.0944824 -1.9370117l0 -20.776886l-44.32019 -20.22049l-3.322815 1.9370117l0.27557373 35.45932l19.944885 9.417328l-0.83203125 2.7690125z" fill-rule="evenodd"/><path fill="#eeeeee" d="m685.31757 304.70865l-7.2020874 -5.262451l-6.370056 2.7690125l-3.8792725 -1.3831787l-6.0944824 6.370056l-8.031494 7.7559204l-6.9265137 -3.6010437l-6.370117 3.3254395l0.27563477 6.923889l6.0944824 2.7716675l6.9265137 0.27557373l4.9868774 3.6010742l5.262451 5.262451l6.923889 -1.3832092l0.83203125 -7.75589l-2.21521 -2.217865l11.910706 -5.54068l1.9396362 5.8189087l6.091858 -0.27822876l3.8792725 -4.4304504l-1.661377 -4.9868774l-4.9868774 -1.107605l-3.876648 -2.771637z" fill-rule="evenodd"/><path stroke="#595959" stroke-width="1.0" stroke-linejoin="round" stroke-linecap="butt" d="m685.31757 304.70865l-7.2020874 -5.262451l-6.370056 2.7690125l-3.8792725 -1.3831787l-6.0944824 6.370056l-8.031494 7.7559204l-6.9265137 -3.6010437l-6.370117 3.3254395l0.27563477 6.923889l6.0944824 2.7716675l6.9265137 0.27557373l4.9868774 3.6010742l5.262451 5.262451l6.923889 -1.3832092l0.83203125 -7.75589l-2.21521 -2.217865l11.910706 -5.54068l1.9396362 5.8189087l6.091858 -0.27822876l3.8792725 -4.4304504l-1.661377 -4.9868774l-4.9868774 -1.107605l-3.876648 -2.771637z" fill-rule="evenodd"/><path fill="#eeeeee" d="m638.0761 297.4908l0.91864014 5.855652l3.5144653 2.761139l3.7663574 -0.75064087l2.5958252 2.8451233l5.522278 0.6693115l1.9238892 -3.1811218l7.364868 -5.1049805l3.7663574 -0.58529663l-0.083984375 -1.67453l-4.0183716 -0.58532715l-8.199463 4.099762l-11.464539 -3.9317627l5.4382935 -3.097107l4.8530273 1.5065613l1.0892334 -1.5905762l-6.026245 -1.7558899z" fill-rule="evenodd"/><path stroke="#595959" stroke-width="1.0" stroke-linejoin="round" stroke-linecap="butt" d="m638.0761 297.4908l0.91864014 5.855652l3.5144653 2.761139l3.7663574 -0.75064087l2.5958252 2.8451233l5.522278 0.6693115l1.9238892 -3.1811218l7.364868 -5.1049805l3.7663574 -0.58529663l-0.083984375 -1.67453l-4.0183716 -0.58532715l-8.199463 4.099762l-11.464539 -3.9317627l5.4382935 -3.097107l4.8530273 1.5065613l1.0892334 -1.5905762l-6.026245 -1.7558899z" fill-rule="evenodd"/><path fill="#eeeeee" d="m683.5302 143.53018l-0.47247314 43.05774l44.472473 20.70604l0.70599365 -44.94226l-41.41205 -19.05774z" fill-rule="evenodd"/><path stroke="#595959" stroke-width="1.0" stroke-linejoin="round" stroke-linecap="butt" d="m683.5302 143.53018l-0.47247314 43.05774l44.472473 20.70604l0.70599365 -44.94226l-41.41205 -19.05774z" fill-rule="evenodd"/><path fill="#eeeeee" d="m668.2362 216.70604l7.0577393 3.7637787l2.35437 -2.821518l2.3516846 -1.4120789l-1.4120483 -48.23622l-1.6456909 -4.469818l0.23358154 -10.824142l-1.1758423 -5.6483l-1.4120483 -11.057739l-2.3517456 13.175858l0 4.0l-0.70599365 3.7664032l0 10.587921l-1.6483154 2.5879211l-0.7060547 43.057755z" fill-rule="evenodd"/><path stroke="#595959" stroke-width="1.0" stroke-linejoin="round" stroke-linecap="butt" d="m668.2362 216.70604l7.0577393 3.7637787l2.35437 -2.821518l2.3516846 -1.4120789l-1.4120483 -48.23622l-1.6456909 -4.469818l0.23358154 -10.824142l-1.1758423 -5.6483l-1.4120483 -11.057739l-2.3517456 13.175858l0 4.0l-0.70599365 3.7664032l0 10.587921l-1.6483154 2.5879211l-0.7060547 43.057755z" fill-rule="evenodd"/><path fill="#eeeeee" d="m679.8609 227.51706l18.055115 -1.388443l8.593201 3.6456604l1.6508789 -2.2572174l-7.118103 -5.902893l4.165344 -7.031494l-8.419922 5.72966l-8.939636 -4.254593l-4.1679688 -6.249344l-1.1286011 0.9553833l2.5170288 5.556427l-3.3831787 0.25984192l0.5196533 1.8215332l4.1679688 0.17584229l4.6850586 3.6456757l-11.803162 3.8188934z" fill-rule="evenodd"/><path stroke="#595959" stroke-width="1.0" stroke-linejoin="round" stroke-linecap="butt" d="m679.8609 227.51706l18.055115 -1.388443l8.593201 3.6456604l1.6508789 -2.2572174l-7.118103 -5.902893l4.165344 -7.031494l-8.419922 5.72966l-8.939636 -4.254593l-4.1679688 -6.249344l-1.1286011 0.9553833l2.5170288 5.556427l-3.3831787 0.25984192l0.5196533 1.8215332l4.1679688 0.17584229l4.6850586 3.6456757l-11.803162 3.8188934z" fill-rule="evenodd"/><path fill="#eeeeee" d="m498.20734 266.3071l-25.446167 12.905487l-6.094513 25.089264l0.71655273 22.220459l5.37796 6.4514465l8.601044 1.0761108l-14.695557 2.1495972l-16.845123 -3.9422302l-1.0761414 -4.6588135l6.4514465 0.71655273l4.3018494 -1.7926636l-0.35958862 -5.015747l-22.580048 -11.112854l-8.601044 5.0183716l10.393707 6.4514465l2.1495972 8.603668l-9.317596 -3.228363l-1.4356995 7.527588l12.545959 6.8110046l-0.35958862 3.9422607l8.960632 2.5091858l4.301819 0.3569641l-1.0761108 7.5275574l-5.3753357 -0.71655273l-2.1495972 7.8845215l-12.545929 -8.960632l-1.792633 20.073486l-10.034149 0l-8.24408 -3.225708l-10.036743 -4.3018494l1.0761108 -7.1679688l11.826782 -1.433075l-0.71655273 -39.78476l3.5852966 -11.1128845l20.787415 1.433075l0.35958862 -4.658783l-28.314972 -21.863525l3.9422607 -6.8110046l6.4514465 0.3595581l7.1679688 8.24411l12.186371 7.5275574l10.393677 -21.86615l13.979004 -11.826782l-1.0761108 -3.5852966l-6.80838 -0.35694885l-3.2257385 -10.393707l2.5091858 -5.734894l-4.301819 -10.036758l6.091858 -7.1679688l16.131226 1.0761108l9.677155 10.393707l-4.301819 18.637787l1.433075 4.301834l8.960632 0.7165375z" fill-rule="evenodd"/><path stroke="#595959" stroke-width="1.0" stroke-linejoin="round" stroke-linecap="butt" d="m498.20734 266.3071l-25.446167 12.905487l-6.094513 25.089264l0.71655273 22.220459l5.37796 6.4514465l8.601044 1.0761108l-14.695557 2.1495972l-16.845123 -3.9422302l-1.0761414 -4.6588135l6.4514465 0.71655273l4.3018494 -1.7926636l-0.35958862 -5.015747l-22.580048 -11.112854l-8.601044 5.0183716l10.393707 6.4514465l2.1495972 8.603668l-9.317596 -3.228363l-1.4356995 7.527588l12.545959 6.8110046l-0.35958862 3.9422607l8.960632 2.5091858l4.301819 0.3569641l-1.0761108 7.5275574l-5.3753357 -0.71655273l-2.1495972 7.8845215l-12.545929 -8.960632l-1.792633 20.073486l-10.034149 0l-8.24408 -3.225708l-10.036743 -4.3018494l1.0761108 -7.1679688l11.826782 -1.433075l-0.71655273 -39.78476l3.5852966 -11.1128845l20.787415 1.433075l0.35958862 -4.658783l-28.314972 -21.863525l3.9422607 -6.8110046l6.4514465 0.3595581l7.1679688 8.24411l12.186371 7.5275574l10.393677 -21.86615l13.979004 -11.826782l-1.0761108 -3.5852966l-6.80838 -0.35694885l-3.2257385 -10.393707l2.5091858 -5.734894l-4.301819 -10.036758l6.091858 -7.1679688l16.131226 1.0761108l9.677155 10.393707l-4.301819 18.637787l1.433075 4.301834l8.960632 0.7165375z" fill-rule="evenodd"/><path fill="#eeeeee" d="m622.6562 108.98425l42.577393 20.312332l-1.1705933 57.422577l-42.188965 -20.703415z" fill-rule="evenodd"/><path stroke="#595959" stroke-width="1.0" stroke-linejoin="round" stroke-linecap="butt" d="m622.6562 108.98425l42.577393 20.312332l-1.1705933 57.422577l-42.188965 -20.703415z" fill-rule="evenodd"/><path fill="#eeeeee" d="m620.3832 175.3727l-0.21258545 57.322845l43.09973 19.958008l-0.63775635 -25.690292l-7.005249 -3.3963318l-0.42523193 -5.519684l8.068237 -3.6089172l0 -19.110245z" fill-rule="evenodd"/><path stroke="#595959" stroke-width="1.0" stroke-linejoin="round" stroke-linecap="butt" d="m620.3832 175.3727l-0.21258545 57.322845l43.09973 19.958008l-0.63775635 -25.690292l-7.005249 -3.3963318l-0.42523193 -5.519684l8.068237 -3.6089172l0 -19.110245z" fill-rule="evenodd"/><path fill="#eeeeee" d="m263.0105 162.38321l-7.209976 5.015747l0 19.120728l32.60106 14.734909l47.963257 -22.572174l-0.62731934 -10.343842l-3.1364746 -0.939621l0 -8.779541l-12.538055 -6.8950043l-0.93963623 4.7007904l-46.70865 19.750656l-9.719177 -5.015747z" fill-rule="evenodd"/><path stroke="#595959" stroke-width="1.0" stroke-linejoin="round" stroke-linecap="butt" d="m263.0105 162.38321l-7.209976 5.015747l0 19.120728l32.60106 14.734909l47.963257 -22.572174l-0.62731934 -10.343842l-3.1364746 -0.939621l0 -8.779541l-12.538055 -6.8950043l-0.93963623 4.7007904l-46.70865 19.750656l-9.719177 -5.015747z" fill-rule="evenodd"/><path fill="#eeeeee" d="m439.30185 233.62532l-3.0577698 6.1128693l-2.6194153 7.8608856l7.422577 3.4934387l9.608917 -3.9317627l-1.7480164 -6.5485535l-5.238861 -2.1837158z" fill-rule="evenodd"/><path stroke="#595959" stroke-width="1.0" stroke-linejoin="round" stroke-linecap="butt" d="m439.30185 233.62532l-3.0577698 6.1128693l-2.6194153 7.8608856l7.422577 3.4934387l9.608917 -3.9317627l-1.7480164 -6.5485535l-5.238861 -2.1837158z" fill-rule="evenodd"/><path fill="#eeeeee" d="m306.11285 358.95276l1.3097229 17.902893l10.91864 4.3674316l23.144348 -10.480316l-0.43832397 -24.45404l-6.9868774 -0.43832397z" fill-rule="evenodd"/><path stroke="#595959" stroke-width="1.0" stroke-linejoin="round" stroke-linecap="butt" d="m306.11285 358.95276l1.3097229 17.902893l10.91864 4.3674316l23.144348 -10.480316l-0.43832397 -24.45404l-6.9868774 -0.43832397z" fill-rule="evenodd"/><path fill="#eeeeee" d="m718.06256 217.18068l5.727051 7.4881897l0.43829346 11.454071l-7.488159 3.5249329l-7.047241 -3.5249329l1.7611694 -6.6062927l0 -6.6089325z" fill-rule="evenodd"/><path stroke="#595959" stroke-width="1.0" stroke-linejoin="round" stroke-linecap="butt" d="m718.06256 217.18068l5.727051 7.4881897l0.43829346 11.454071l-7.488159 3.5249329l-7.047241 -3.5249329l1.7611694 -6.6062927l0 -6.6089325z" fill-rule="evenodd"/><path fill="#eeeeee" d="m353.7454 242.73228l0 36.123367l26.871399 -22.908142l-0.4409485 -36.5643z" fill-rule="evenodd"/><path stroke="#595959" stroke-width="1.0" stroke-linejoin="round" stroke-linecap="butt" d="m353.7454 242.73228l0 36.123367l26.871399 -22.908142l-0.4409485 -36.5643z" fill-rule="evenodd"/><path fill="#eeeeee" d="m439.01837 190.74803l50.836243 -4.8451385l0.45159912 36.5643l-10.438202 0.4409485l-12.707031 -3.0839996l-11.801117 0.881897l-4.5403748 5.286087l-11.346802 1.3202057z" fill-rule="evenodd"/><path stroke="#595959" stroke-width="1.0" stroke-linejoin="round" stroke-linecap="butt" d="m439.01837 190.74803l50.836243 -4.8451385l0.45159912 36.5643l-10.438202 0.4409485l-12.707031 -3.0839996l-11.801117 0.881897l-4.5403748 5.286087l-11.346802 1.3202057z" fill-rule="evenodd"/><path fill="#eeeeee" d="m473.69815 279.48032l26.879272 -13.2966l9.249359 0l3.1784668 7.514435l-4.6246643 46.24411l-5.490814 5.490814l1.4461975 10.1154785l-7.514435 9.249359l-13.2966 3.4671936l-8.958008 2.0236206l2.3123474 11.561676l19.94226 -5.202118l5.7795105 10.404205l-6.9370117 1.7349243l-4.0446167 -3.758545l-6.648285 2.6010437l24.278198 11.850403l0.8661499 10.1154785l-6.0682373 1.1548767l-3.469818 -4.044647l2.3123474 -4.047241l-28.034119 -8.091858l-4.047241 19.94226l0.8687439 7.514435l-6.359558 0.5774231l-0.8661499 -7.225708l1.7322693 -20.519684l-28.034119 5.490814l0.8687744 8.091858l-6.3595886 0.2886963l-3.75589 -5.2020874l2.6010437 -6.934387l30.05774 -10.40683l-7.225708 -2.3096924l-4.913391 4.0446167l-2.6010437 -2.3123474l2.0236206 -9.826752l16.761139 4.9133606l1.1575012 -9.246704l-14.740173 -4.335968l-9.249329 -1.4461975l0.5774231 -5.2020874l-13.293976 -5.490814l2.0236206 -7.514435l8.669312 2.8897705l-2.0236511 -8.958008l-9.246704 -5.7821655l7.8031616 -4.333313l21.385803 10.404175l0 5.490814l-10.1154785 0l1.1574707 7.514435l19.364838 2.3123474l10.981628 -2.0236206l-10.692902 -7.2257385l-1.4461975 -22.832z" fill-rule="evenodd"/><path stroke="#595959" stroke-width="1.0" stroke-linejoin="round" stroke-linecap="butt" d="m473.69815 279.48032l26.879272 -13.2966l9.249359 0l3.1784668 7.514435l-4.6246643 46.24411l-5.490814 5.490814l1.4461975 10.1154785l-7.514435 9.249359l-13.2966 3.4671936l-8.958008 2.0236206l2.3123474 11.561676l19.94226 -5.202118l5.7795105 10.404205l-6.9370117 1.7349243l-4.0446167 -3.758545l-6.648285 2.6010437l24.278198 11.850403l0.8661499 10.1154785l-6.0682373 1.1548767l-3.469818 -4.044647l2.3123474 -4.047241l-28.034119 -8.091858l-4.047241 19.94226l0.8687439 7.514435l-6.359558 0.5774231l-0.8661499 -7.225708l1.7322693 -20.519684l-28.034119 5.490814l0.8687744 8.091858l-6.3595886 0.2886963l-3.75589 -5.2020874l2.6010437 -6.934387l30.05774 -10.40683l-7.225708 -2.3096924l-4.913391 4.0446167l-2.6010437 -2.3123474l2.0236206 -9.826752l16.761139 4.9133606l1.1575012 -9.246704l-14.740173 -4.335968l-9.249329 -1.4461975l0.5774231 -5.2020874l-13.293976 -5.490814l2.0236206 -7.514435l8.669312 2.8897705l-2.0236511 -8.958008l-9.246704 -5.7821655l7.8031616 -4.333313l21.385803 10.404175l0 5.490814l-10.1154785 0l1.1574707 7.514435l19.364838 2.3123474l10.981628 -2.0236206l-10.692902 -7.2257385l-1.4461975 -22.832z" fill-rule="evenodd"/><path fill="#eeeeee" d="m670.8189 420.63254l8.178467 4.2756042l38.288696 -18.217865l-0.18634033 -3.1574707l-7.9921265 -4.4619446l-0.37268066 -16.170593l5.5773926 -2.973755l-1.671875 -3.346466l-32.15753 -26.207336l-9.850342 5.0183716z" fill-rule="evenodd"/><path stroke="#595959" stroke-width="1.0" stroke-linejoin="round" stroke-linecap="butt" d="m670.8189 420.63254l8.178467 4.2756042l38.288696 -18.217865l-0.18634033 -3.1574707l-7.9921265 -4.4619446l-0.37268066 -16.170593l5.5773926 -2.973755l-1.671875 -3.346466l-32.15753 -26.207336l-9.850342 5.0183716z" fill-rule="evenodd"/><path fill="#eeeeee" d="m659.1076 364.31235l-16.729675 13.196838l2.231018 2.973755l4.8345947 1.4881897l-0.93170166 18.02887l-8.178528 4.0892334l0.18640137 3.346466l18.40155 8.178467z" fill-rule="evenodd"/><path stroke="#595959" stroke-width="1.0" stroke-linejoin="round" stroke-linecap="butt" d="m659.1076 364.31235l-16.729675 13.196838l2.231018 2.973755l4.8345947 1.4881897l-0.93170166 18.02887l-8.178528 4.0892334l0.18640137 3.346466l18.40155 8.178467z" fill-rule="evenodd"/></g></svg>