<svg version="1.1" viewBox="0.0 0.0 960.0 540.0" fill="none" stroke="none" stroke-linecap="square" stroke-miterlimit="10" xmlns:xlink="http://www.w3.org/1999/xlink" xmlns="http://www.w3.org/2000/svg"><clipPath id="p.0"><path d="m0 0l960.0 0l0 540.0l-960.0 0l0 -540.0z" clip-rule="nonzero"/></clipPath><g clip-path="url(#p.0)"><path fill="#ffffff" d="m0 0l960.0 0l0 540.0l-960.0 0z" fill-rule="evenodd"/><path fill="#000000" d="m455.29916 248.58437l38.016327 103.078384l4.962982 0l31.068146 -68.6875l31.16742 68.6875l4.9630127 0l38.1156 -103.078384l-18.561523 0l-24.417786 66.23778l-29.182251 -66.23778l-4.9629517 0l-28.28894 66.23778l-22.730377 -66.23778z" fill-rule="evenodd"/><path fill="#ffffff" d="m587.238 262.93735l5.07666 1.8193665l-27.994995 75.68045l-5.076721 -1.8193665z" fill-rule="evenodd"/><path fill="#ffffff" d="m525.4962 263.20096l4.871277 -2.259552l34.480225 76.648834l-4.871277 2.259552z" fill-rule="evenodd"/><path fill="#ffffff" d="m526.9123 260.8074l4.9299316 2.1421814l-34.128113 76.06192l-4.9299316 -2.1421814z" fill-rule="evenodd"/><path fill="#ffffff" d="m498.91965 335.7591l-5.047333 1.8780518l-28.757965 -79.49527l5.0473022 -1.8780823z" fill-rule="evenodd"/><path fill="#000000" d="m809.8478 262.30887c-17.428406 0 -31.164001 4.2915955 -41.206726 12.874817c-10.020264 8.583221 -15.030334 19.96289 -15.030334 34.139038c0 13.899261 4.829956 24.919006 14.489868 33.059204c9.659973 8.140228 21.886902 12.210327 36.680786 12.210327c15.266785 0 28.067871 -2.7410889 38.40338 -8.223267l-7.5996094 -13.290131c-8.781799 5.4821777 -17.496033 8.223267 -26.1427 8.223267c-11.146057 0 -19.86029 -2.7226562 -26.14264 -8.167908c-6.2823486 -5.4637146 -9.423462 -13.400879 -9.423462 -23.811493c0 -10.465973 3.0736084 -18.698486 9.220825 -24.69751c6.147217 -6.017456 14.456116 -9.026215 24.926697 -9.026215c4.7962036 0 9.671204 0.71987915 14.625061 2.1596375c4.9763184 1.4397888 8.44397 2.962616 10.403015 4.568512l9.524841 -11.130493c-3.1074219 -2.0489197 -7.937378 -4.0424194 -14.489929 -5.9805603c-6.5525513 -1.9381409 -12.632263 -2.9072266 -18.239075 -2.9072266z" fill-rule="evenodd"/><path fill="#000000" d="m14.830628 269.93924c0 -45.500397 37.272934 -82.38576 83.251434 -82.38576c22.07965 0 43.254974 8.679916 58.867645 24.130234c15.612671 15.450333 24.383774 36.40547 24.383774 58.255524c0 45.500397 -37.272934 82.38577 -83.25142 82.38577c-45.9785 0 -83.251434 -36.885376 -83.251434 -82.38577zm26.282703 0c0 30.984863 25.505772 56.103058 56.96873 56.103058c31.462952 0 56.96872 -25.118195 56.96872 -56.103058c0 -30.984848 -25.505768 -56.103043 -56.96872 -56.103043c-31.46296 0 -56.96873 25.118195 -56.96873 56.103043z" fill-rule="evenodd"/><path stroke="#595959" stroke-width="0.931758530183727" stroke-linejoin="round" stroke-linecap="butt" d="m14.830628 269.93924c0 -45.500397 37.272934 -82.38576 83.251434 -82.38576c22.07965 0 43.254974 8.679916 58.867645 24.130234c15.612671 15.450333 24.383774 36.40547 24.383774 58.255524c0 45.500397 -37.272934 82.38577 -83.25142 82.38577c-45.9785 0 -83.251434 -36.885376 -83.251434 -82.38577zm26.282703 0c0 30.984863 25.505772 56.103058 56.96873 56.103058c31.462952 0 56.96872 -25.118195 56.96872 -56.103058c0 -30.984848 -25.505768 -56.103043 -56.96872 -56.103043c-31.46296 0 -56.96873 25.118195 -56.96873 56.103043z" fill-rule="evenodd"/><path fill="#ffffff" d="m80.18168 164.13628l35.80076 0l0 70.7505l-35.80076 0z" fill-rule="evenodd"/><path fill="#ffffff" d="m189.5192 259.07187l40.818726 0l0 12.412872l-40.818726 0z" fill-rule="evenodd"/><path fill="#000000" d="m286.97375 266.2163l84.07309 0l0 3.9615479l-84.07309 0z" fill-rule="evenodd"/><path fill="#000000" d="m301.8663 272.92163l53.671783 0l0 4.225647l-53.671783 0z" fill-rule="evenodd"/><path fill="#000000" d="m316.77838 198.42506c0 -14.646698 13.816193 -27.062393 32.4104 -29.125061c18.594177 -2.0626678 36.30182 6.8560486 41.539 20.921783l-28.368134 6.4237823c-3.0722656 -0.75935364 -7.7878113 -1.000351 -11.911102 -0.6087494c-4.123291 0.39160156 -6.8254395 1.3370972 -6.8254395 2.3882446z" fill-rule="evenodd"/><path fill="#000000" d="m217.33836 281.45657l25.236588 0l0 69.136536l-25.236588 0z" fill-rule="evenodd"/><path fill="#ffffff" d="m450.30722 246.49821l36.953003 0l0 21.057907l-36.953003 0z" fill-rule="evenodd"/><path fill="#ffffff" d="m575.0034 247.05835l36.953003 0l0 21.057892l-36.953003 0z" fill-rule="evenodd"/><path fill="#000000" d="m623.1414 270.43253l25.236572 0l0 81.197266l-25.236572 0z" fill-rule="evenodd"/><path fill="#000000" d="m608.83575 243.92674l53.671814 0l0 2.3182526l-53.671814 0z" fill-rule="evenodd"/><path fill="#000000" d="m623.5229 217.15443l23.329163 0l0 27.085327l-23.329163 0z" fill-rule="evenodd"/><path fill="#000000" d="m698.75824 217.7878l25.236633 0l0 133.842l-25.236633 0z" fill-rule="evenodd"/><path fill="#000000" d="m680.0509 248.6146l62.88611 0l0 28.083038l-62.88611 0z" fill-rule="evenodd"/><path fill="#ffffff" d="m677.9161 255.42995l67.28778 0l0 14.290939l-67.28778 0z" fill-rule="evenodd"/><path fill="#ffffff" d="m717.3189 214.37645l0 141.9999l-10.593506 0l0 -141.9999z" fill-rule="evenodd"/><path fill="#ffffff" d="m717.08167 251.05511l0 23.446564l-17.25476 0l0 -23.446564z" fill-rule="evenodd"/><path fill="#000000" d="m701.5655 253.06035l6.309143 0l0 19.250229l-6.309143 0z" fill-rule="evenodd"/><path fill="#000000" d="m712.05853 253.06058l0.7630005 1.7313385l-9.8012085 4.3430634l-0.7630005 -1.7313538z" fill-rule="evenodd"/><path fill="#000000" d="m712.82184 269.29736l-0.7923584 1.7606812l-9.771851 -4.343048l0.7923584 -1.7606812z" fill-rule="evenodd"/><path fill="#000000" d="m702.26025 261.10565l0 2.1421814l-39.556885 0l0 -2.1421814z" fill-rule="evenodd"/><path fill="#000000" d="m710.7604 269.52292l2.5236816 0l0 94.87198l-2.5236816 0z" fill-rule="evenodd"/><path fill="#000000" d="m608.6437 259.99063l0 2.3182373l-19.074158 0l0 -2.3182373z" fill-rule="evenodd"/><path fill="#000000" d="m589.45557 260.88565l2.083496 0.76297l-27.496155 75.56308l-2.083496 -0.76297z" fill-rule="evenodd"/><path fill="#000000" d="m468.7726 256.7431l0 2.1421814l-15.171295 0l0 -2.1421814z" fill-rule="evenodd"/><path fill="#000000" d="m497.37204 335.30038l-2.28891 0.8510132l-28.171082 -77.85199l2.28891 -0.85098267z" fill-rule="evenodd"/><path fill="#ffffff" d="m776.2679 308.4439c0 -16.547058 13.492859 -29.96112 30.137207 -29.96112c7.992859 0 15.658386 3.1566162 21.31018 8.775421c5.6518555 5.618805 8.826965 13.239532 8.826965 21.1857c0 16.547089 -13.492859 29.96112 -30.137146 29.96112c-16.644348 0 -30.137207 -13.414032 -30.137207 -29.96112z" fill-rule="evenodd"/><path stroke="#000000" stroke-width="2.795275590551181" stroke-linejoin="round" stroke-linecap="butt" d="m776.2679 308.4439c0 -16.547058 13.492859 -29.96112 30.137207 -29.96112c7.992859 0 15.658386 3.1566162 21.31018 8.775421c5.6518555 5.618805 8.826965 13.239532 8.826965 21.1857c0 16.547089 -13.492859 29.96112 -30.137146 29.96112c-16.644348 0 -30.137207 -13.414032 -30.137207 -29.96112z" fill-rule="evenodd"/><path fill="#000000" d="m827.1845 283.75192l1.7020264 1.6726379l-47.186584 47.186584l-1.7020264 -1.6726685z" fill-rule="evenodd"/><path fill="#000000" d="m830.6612 330.95285l-1.6726685 1.6726685l-47.186584 -47.21591l1.6726685 -1.6726685z" fill-rule="evenodd"/><path fill="#ffffff" d="m773.0509 308.57733c0 -18.281189 14.819824 -33.101013 33.101013 -33.101013c8.778931 0 17.198303 3.4873962 23.406006 9.695068c6.2076416 6.2076416 9.695007 14.627014 9.695007 23.405945c0 18.281189 -14.819824 33.101044 -33.101013 33.101044c-18.281189 0 -33.101013 -14.819855 -33.101013 -33.101044zm2.2886353 0c0 17.017242 13.795166 30.812439 30.812378 30.812439c17.017273 0 30.812439 -13.795197 30.812439 -30.812439c0 -17.017212 -13.795166 -30.812408 -30.812439 -30.812408c-17.017212 0 -30.812378 13.795197 -30.812378 30.812408z" fill-rule="evenodd"/><path fill="#000000" d="m854.1712 258.7288l20.45337 0l0 92.20163l-20.45337 0z" fill-rule="evenodd"/><path fill="#000000" d="m854.1712 174.54077l20.45337 0l0 85.48163l-20.45337 0z" fill-rule="evenodd"/><path fill="#000000" d="m925.7874 268.28635l17.90033 0l0 84.07309l-17.90033 0z" fill-rule="evenodd"/><path fill="#ffffff" d="m221.10803 251.80484l20.453384 0l0 19.250244l-20.453384 0z" fill-rule="evenodd"/><path fill="#ffffff" d="m318.2934 223.65605l23.329163 0l0 19.250244l-23.329163 0z" fill-rule="evenodd"/><path fill="#000000" fill-opacity="0.0" d="m98.08206 164.13628l0 -23.292297l537.09937 0l0 76.3185" fill-rule="evenodd"/><path stroke="#000000" stroke-width="3.727034120734908" stroke-linejoin="round" stroke-linecap="butt" d="m98.08206 164.13628l0 -23.292297l537.09937 0l0 76.3185" fill-rule="evenodd"/><path fill="#000000" d="m288.06442 252.5807l84.07309 0l0 3.961563l-84.07309 0z" fill-rule="evenodd"/><path fill="#000000" d="m302.12796 259.3692l53.671783 0l0 3.9615784l-53.671783 0z" fill-rule="evenodd"/><path fill="#000000" d="m316.77838 197.7966l27.144012 0l0 50.825333l-27.144012 0z" fill-rule="evenodd"/><path fill="#000000" d="m382.40387 242.44972l2.4062805 0l0 26.557114l-2.4062805 0z" fill-rule="evenodd"/><path fill="#000000" d="m721.38074 262.45312l-1.3792114 1.3498535l-9.243591 -9.243622l1.3792114 -1.3498688z" fill-rule="evenodd"/><path fill="#000000" d="m761.22125 261.5776l-0.02935791 2.28891l-41.37628 0l0.02935791 -2.28891z" fill-rule="evenodd"/><path fill="#000000" d="m214.55792 194.96725l27.144028 0l0 53.349l-27.144028 0z" fill-rule="evenodd"/><path fill="#000000" d="m875.9794 268.3637l48.272278 0l0 3.9615479l-48.272278 0z" fill-rule="evenodd"/><path fill="#ffffff" d="m838.6902 268.07272l6.1917725 6.631958l-13.997498 13.96814l-6.1917725 -6.6319275z" fill-rule="evenodd"/><path fill="#000000" d="m848.2716 262.71988l1.4378662 1.52594l-32.338074 32.308716l-1.4378662 -1.52594z" fill-rule="evenodd"/><path fill="#000000" d="m876.0698 279.21396l48.27234 0l0 3.9615784l-48.27234 0z" fill-rule="evenodd"/><path fill="#000000" d="m887.5877 274.05295l25.236572 0l0 3.4333496l-25.236572 0z" fill-rule="evenodd"/><path fill="#000000" d="m887.5877 284.90076l25.236572 0l0 3.4333496l-25.236572 0z" fill-rule="evenodd"/><path fill="#ffffff" d="m875.8223 259.89282l-0.23474121 9.713135l-22.654297 0l0.23480225 -9.713135z" fill-rule="evenodd"/><path fill="#000000" d="m898.2148 263.10962l2.5236816 0.02935791l0 6.778656l-2.5236816 -0.029327393z" fill-rule="evenodd"/><path fill="#000000" d="m898.2148 284.9031l2.5236816 0.029327393l0 6.7786865l-2.5236816 -0.02935791z" fill-rule="evenodd"/><path fill="#ffffff" d="m325.45978 244.98752l8.069855 0.117370605l0 6.7786713l-8.069855 -0.117370605z" fill-rule="evenodd"/><path fill="#ffffff" d="m226.71893 239.97981l7.6003265 0.117385864l0 10.886948l-7.6003265 -0.117385864z" fill-rule="evenodd"/><path fill="#ffffff" d="m241.81958 240.041l-0.117370605 6.954727l-12.823715 0l0.117370605 -6.954727z" fill-rule="evenodd"/><path fill="#000000" d="m228.97116 243.09491l2.4062805 0.029342651l0 9.537079l-2.4062805 -0.029342651z" fill-rule="evenodd"/><path fill="#ffffff" d="m344.62177 239.3245l-0.11740112 7.923111l-27.877625 0l0.117370605 -7.923111z" fill-rule="evenodd"/><path fill="#000000" d="m384.85117 241.88972l0 2.1421814l-155.9387 0l0 -2.1421814z" fill-rule="evenodd"/><path fill="#000000" d="m327.94165 243.65288l3.139923 0.029342651l0 9.361023l-3.139923 -0.029342651z" fill-rule="evenodd"/><path fill="#ffffff" d="m224.17816 277.2431l12.178131 0.17608643l0 73.86105l-12.178131 -0.17605591z" fill-rule="evenodd"/><path fill="#000000" d="m228.72664 277.0938l2.8757935 0.029327393l0 87.62381l-2.8757935 -0.029327393z" fill-rule="evenodd"/><path fill="#000000" d="m316.392 282.45673l25.236603 0l0 68.10947l-25.236603 0z" fill-rule="evenodd"/><path fill="#ffffff" d="m323.2318 277.28467l12.178131 0.17608643l0 73.80237l-12.178131 -0.17605591z" fill-rule="evenodd"/><path fill="#000000" d="m328.0248 277.15494l3.2279358 0.029327393l0 87.15433l-3.2279358 -0.02935791z" fill-rule="evenodd"/><path fill="#ffffff" d="m768.2845 276.05814l6.4558716 -6.0157166l13.175842 13.175873l-6.4558716 6.015686z" fill-rule="evenodd"/><path fill="#000000" d="m786.9528 287.02234l-1.6139526 1.5552673l-25.53009 -25.53003l1.6140137 -1.5552979z" fill-rule="evenodd"/><path fill="#ffffff" d="m938.8473 288.33533l-0.20544434 8.392639l-20.805542 0l0.20544434 -8.392639z" fill-rule="evenodd"/><path fill="#000000" d="m934.3392 291.7097l-0.02935791 2.230194l-36.09424 0l0.02935791 -2.230194z" fill-rule="evenodd"/><path fill="#ffffff" d="m930.2872 296.41083l8.392639 0.20541382l0 56.10742l-8.392639 -0.20541382z" fill-rule="evenodd"/><path fill="#000000" d="m933.2263 291.71l2.4943237 0.029327393l0 72.80466l-2.4943237 -0.029327393z" fill-rule="evenodd"/><path fill="#000000" d="m187.91747 266.2346l84.073105 0l0 3.9615784l-84.073105 0z" fill-rule="evenodd"/><path fill="#000000" d="m202.81 272.9399l53.671783 0l0 4.2256775l-53.671783 0z" fill-rule="evenodd"/><path fill="#000000" d="m189.00812 252.599l84.07309 0l0 3.9615479l-84.07309 0z" fill-rule="evenodd"/><path fill="#000000" d="m203.07166 259.3875l53.671783 0l0 3.9615479l-53.671783 0z" fill-rule="evenodd"/><path fill="#000000" d="m235.8763 245.54651l1.3205261 0.029342651l0 4.343048l-1.3205261 -0.02935791z" fill-rule="evenodd"/><path fill="#000000" d="m334.8842 245.68472l1.3204956 0.029342651l0 4.343048l-1.3204956 -0.029342651z" fill-rule="evenodd"/><path fill="#ffffff" d="m327.92453 245.9711l-0.058685303 4.929947l-11.825989 0l0.058685303 -4.929947z" fill-rule="evenodd"/><path fill="#ffffff" d="m344.1657 245.27817l-0.058685303 4.929947l-11.825989 0l0.058685303 -4.929947z" fill-rule="evenodd"/><path fill="#000000" d="m214.55827 195.59677c0 -14.646683 13.816208 -27.062393 32.4104 -29.125061c18.594193 -2.0626678 36.301804 6.856064 41.539017 20.921783l-28.368134 6.4237823c-3.0722961 -0.75935364 -7.7878265 -1.000351 -11.911102 -0.6087494c-4.123291 0.39161682 -6.8254395 1.3370972 -6.8254395 2.3882446z" fill-rule="evenodd"/><path fill="#ffffff" d="m251.69621 245.19102l-0.117370605 6.954727l-17.84169 0l0.117385864 -6.954727z" fill-rule="evenodd"/><path fill="#000000" d="m935.79004 367.17035l0.02935791 -2.7877502l-731.71466 0l-0.029342651 2.7877502z" fill-rule="evenodd"/><path fill="#000000" d="m905.2384 260.57724l1.7900391 0.02935791l0 6.778656l-1.7900391 -0.029327393z" fill-rule="evenodd"/><path fill="#000000" d="m909.5028 263.06696l-0.02935791 1.7900391l-6.7786865 0l0.02935791 -1.7900391z" fill-rule="evenodd"/><path fill="#000000" d="m335.32397 244.7278l1.7900391 0.02935791l0 6.778656l-1.7900391 -0.029342651z" fill-rule="evenodd"/><path fill="#000000" d="m339.58835 247.2175l-0.02935791 1.7900391l-6.778656 0l0.02935791 -1.7900391z" fill-rule="evenodd"/><path fill="#000000" d="m235.37204 244.96829l1.7900391 0.029342651l0 6.778656l-1.7900391 -0.029342651z" fill-rule="evenodd"/><path fill="#000000" d="m239.6364 247.45798l-0.029342651 1.7900391l-6.7786713 0l0.02935791 -1.7900391z" fill-rule="evenodd"/><path fill="#000000" d="m187.91766 329.4579l0 38.001617l-4.1082764 0l0 -38.001617z" fill-rule="evenodd"/><path fill="#000000" d="m182.0841 335.77618l0 25.236603l-3.4333496 0l0 -25.236603z" fill-rule="evenodd"/><path fill="#000000" d="m176.92072 342.51767l0 12.178131l-3.4333649 0l0 -12.178131z" fill-rule="evenodd"/><path fill="#000000" d="m201.70732 349.1817l2.8464508 0.02935791l0 17.959076l-2.8464508 -0.02935791z" fill-rule="evenodd"/><path fill="#000000" d="m186.48708 349.1817l0.029342651 -2.8464355l17.959076 0l-0.02935791 2.8464355z" fill-rule="evenodd"/><path fill="#000000" d="m527.40265 263.42154l1.9954834 0.85098267l-32.01526 71.86563l-1.9954529 -0.8510132z" fill-rule="evenodd"/><path fill="#000000" d="m562.7766 337.0928l-1.9367676 0.9096985l-33.101074 -74.30124l1.9367676 -0.9096985z" fill-rule="evenodd"/><path fill="#ffffff" d="m451.16327 254.31253l33.687927 0.4988556l0 1.7020111l-33.687927 -0.49887085z" fill-rule="evenodd"/><path fill="#ffffff" d="m629.97876 216.60422l10.622864 0l0 27.085327l-10.622864 0z" fill-rule="evenodd"/><path fill="#000000" d="m633.15784 214.37645l4.1083374 0l0 30.489334l-4.1083374 0z" fill-rule="evenodd"/><path fill="#000000" d="m900.6004 263.0627l-0.02935791 2.2888794l-52.497986 0l0.02935791 -2.2888794z" fill-rule="evenodd"/><path fill="#000000" d="m421.61758 248.90715c-10.256805 0 -18.561493 2.3241425 -24.914093 6.972397c-6.3526 4.648285 -9.5289 11.118164 -9.5289 19.409668c0 3.2035217 0.5404053 6.2081604 1.6212463 9.013855c1.1028748 2.7847595 2.7572021 5.4229736 4.9629517 7.914612c2.2278137 2.4707031 4.8416443 4.6796875 7.8414917 6.6269226c3.0219116 1.9472351 8.8671875 4.805298 17.535828 8.574158c11.24939 4.7738953 16.874115 10.490021 16.874115 17.148346c0 9.296509 -5.823242 13.944794 -17.469666 13.944794c-6.418762 0 -14.888916 -3.2663574 -25.4104 -9.799042l-6.6503906 16.95987c9.859772 5.276428 20.381256 7.914612 31.564484 7.914612c11.844971 0 21.109161 -2.5544434 27.792633 -7.6633606c6.6834717 -5.129822 10.0252075 -12.217377 10.0252075 -21.262665c0 -6.9095764 -1.8859253 -12.6571045 -5.657776 -17.242554c-3.771881 -4.585449 -9.79361 -8.668396 -18.065216 -12.24881l-13.499268 -5.841736c-7.7422485 -3.3291626 -11.613373 -8.228668 -11.613373 -14.698578c0 -3.0778809 1.53302 -5.621887 4.5990295 -7.6319275c3.0880737 -2.0100708 6.8819885 -3.0151062 11.381744 -3.0151062c7.543701 0 15.054352 2.8266602 22.53189 8.47995l5.3599854 -16.583008c-11.778778 -4.6482544 -21.539276 -6.972397 -29.281525 -6.972397z" fill-rule="evenodd"/><path fill="#000000" d="m383.0727 269.06177c0 -11.307068 12.293732 -21.136627 29.718903 -23.761978c17.42517 -2.625351 35.427795 2.639618 43.519592 12.727554l-2.2445984 0.7172241c-7.8000793 -9.039551 -24.728912 -13.674149 -41.019043 -11.229752c-16.2901 2.444397 -27.73758 11.33696 -27.73758 21.546951z" fill-rule="evenodd"/><path fill="#ffffff" d="m385.01764 271.0922c0 -11.239197 11.9122925 -20.99469 28.742401 -23.538437c16.830109 -2.543747 34.134552 2.795868 41.752808 12.883621l-2.2026672 0.7038269c-7.3247375 -9.050064 -23.570923 -13.763245 -39.2847 -11.396881c-15.713776 2.3663635 -26.794739 11.194763 -26.794739 21.34787z" fill-rule="evenodd"/><path fill="#000000" d="m96.8806 146.91501l2.4062805 0l0 26.557129l-2.4062805 0z" fill-rule="evenodd"/><path fill="#000000" d="m86.049866 168.43832l24.09449 0l0 64.944885l-24.09449 0z" fill-rule="evenodd"/></g></svg>